<svg xmlns="http://www.w3.org/2000/svg" viewBox="0 0 16 16" shape-rendering="crispEdges"><rect x="5" y="1" width="6" height="1" fill="#16120f"/><rect x="3" y="2" width="2" height="1" fill="#16120f"/><rect x="5" y="2" width="4" height="1" fill="#ff8068"/><rect x="9" y="2" width="2" height="1" fill="#e0393b"/><rect x="11" y="2" width="2" height="1" fill="#16120f"/><rect x="2" y="3" width="1" height="1" fill="#16120f"/><rect x="3" y="3" width="4" height="1" fill="#ff8068"/><rect x="7" y="3" width="5" height="1" fill="#e0393b"/><rect x="12" y="3" width="1" height="1" fill="#9a2029"/><rect x="13" y="3" width="1" height="1" fill="#16120f"/><rect x="2" y="4" width="1" height="1" fill="#16120f"/><rect x="3" y="4" width="2" height="1" fill="#ff8068"/><rect x="5" y="4" width="1" height="1" fill="#9a2029"/><rect x="6" y="4" width="6" height="1" fill="#e0393b"/><rect x="12" y="4" width="1" height="1" fill="#9a2029"/><rect x="13" y="4" width="1" height="1" fill="#16120f"/><rect x="1" y="5" width="1" height="1" fill="#16120f"/><rect x="2" y="5" width="2" height="1" fill="#ff8068"/><rect x="4" y="5" width="1" height="1" fill="#9a2029"/><rect x="5" y="5" width="1" height="1" fill="#6b1520"/><rect x="6" y="5" width="7" height="1" fill="#e0393b"/><rect x="13" y="5" width="1" height="1" fill="#9a2029"/><rect x="14" y="5" width="1" height="1" fill="#16120f"/><rect x="1" y="6" width="1" height="1" fill="#16120f"/><rect x="2" y="6" width="1" height="1" fill="#ff8068"/><rect x="3" y="6" width="6" height="1" fill="#e0393b"/><rect x="9" y="6" width="1" height="1" fill="#9a2029"/><rect x="10" y="6" width="1" height="1" fill="#6b1520"/><rect x="11" y="6" width="2" height="1" fill="#e0393b"/><rect x="13" y="6" width="1" height="1" fill="#9a2029"/><rect x="14" y="6" width="1" height="1" fill="#16120f"/><rect x="1" y="7" width="1" height="1" fill="#16120f"/><rect x="2" y="7" width="1" height="1" fill="#ff8068"/><rect x="3" y="7" width="6" height="1" fill="#e0393b"/><rect x="9" y="7" width="2" height="1" fill="#6b1520"/><rect x="11" y="7" width="2" height="1" fill="#e0393b"/><rect x="13" y="7" width="1" height="1" fill="#9a2029"/><rect x="14" y="7" width="1" height="1" fill="#16120f"/><rect x="1" y="8" width="1" height="1" fill="#16120f"/><rect x="2" y="8" width="10" height="1" fill="#e0393b"/><rect x="12" y="8" width="2" height="1" fill="#9a2029"/><rect x="14" y="8" width="1" height="1" fill="#16120f"/><rect x="1" y="9" width="1" height="1" fill="#16120f"/><rect x="2" y="9" width="2" height="1" fill="#e0393b"/><rect x="4" y="9" width="1" height="1" fill="#9a2029"/><rect x="5" y="9" width="1" height="1" fill="#6b1520"/><rect x="6" y="9" width="6" height="1" fill="#e0393b"/><rect x="12" y="9" width="2" height="1" fill="#9a2029"/><rect x="14" y="9" width="1" height="1" fill="#16120f"/><rect x="1" y="10" width="1" height="1" fill="#16120f"/><rect x="2" y="10" width="3" height="1" fill="#e0393b"/><rect x="5" y="10" width="1" height="1" fill="#9a2029"/><rect x="6" y="10" width="5" height="1" fill="#e0393b"/><rect x="11" y="10" width="2" height="1" fill="#9a2029"/><rect x="13" y="10" width="1" height="1" fill="#6b1520"/><rect x="14" y="10" width="1" height="1" fill="#16120f"/><rect x="2" y="11" width="1" height="1" fill="#16120f"/><rect x="3" y="11" width="5" height="1" fill="#e0393b"/><rect x="8" y="11" width="1" height="1" fill="#9a2029"/><rect x="9" y="11" width="1" height="1" fill="#6b1520"/><rect x="10" y="11" width="1" height="1" fill="#e0393b"/><rect x="11" y="11" width="2" height="1" fill="#9a2029"/><rect x="13" y="11" width="1" height="1" fill="#16120f"/><rect x="2" y="12" width="1" height="1" fill="#16120f"/><rect x="3" y="12" width="1" height="1" fill="#9a2029"/><rect x="4" y="12" width="5" height="1" fill="#e0393b"/><rect x="9" y="12" width="3" height="1" fill="#9a2029"/><rect x="12" y="12" width="1" height="1" fill="#6b1520"/><rect x="13" y="12" width="1" height="1" fill="#16120f"/><rect x="3" y="13" width="2" height="1" fill="#16120f"/><rect x="5" y="13" width="5" height="1" fill="#9a2029"/><rect x="10" y="13" width="1" height="1" fill="#6b1520"/><rect x="11" y="13" width="2" height="1" fill="#16120f"/><rect x="5" y="14" width="6" height="1" fill="#16120f"/></svg>
